<svg xmlns="http://www.w3.org/2000/svg" xmlns:xlink="http://www.w3.org/1999/xlink" version="1.1" x="0px" y="0px" viewBox="0 0 72 90" enable-background="new 0 0 72 72" xml:space="preserve"><g><g><path fill="#000000" d="M63.5,71.5c-1-0.2-1.7-1.1-1.7-2.1V6c0-0.8-0.7-1.5-1.5-1.5H11.7c-0.8,0-1.5,0.7-1.5,1.5v63.4    c0,1-0.7,1.9-1.7,2.1c-1.3,0.2-2.3-0.8-2.3-2v-67c0-1.1,0.9-2,2-2h55.7c1.1,0,2,0.9,2,2v67C65.9,70.7,64.8,71.7,63.5,71.5z"/></g><path fill="#000000" d="M56,9.2H16c-0.8,0-1.4,0.6-1.4,1.4v55c0,0.8,0.6,1.4,1.4,1.4h40c0.8,0,1.4-0.6,1.4-1.4v-55   C57.4,9.8,56.8,9.2,56,9.2z M51.4,40.5c-1.3,0-2.4-1.1-2.4-2.4c0-1.3,1.1-2.4,2.4-2.4c1.3,0,2.4,1.1,2.4,2.4   C53.8,39.4,52.7,40.5,51.4,40.5z"/></g><text x="0" y="87" fill="#000000" font-size="5px" font-weight="bold" font-family="'Helvetica Neue', Helvetica, Arial-Unicode, Arial, Sans-serif">Created by Creative Stall</text><text x="0" y="92" fill="#000000" font-size="5px" font-weight="bold" font-family="'Helvetica Neue', Helvetica, Arial-Unicode, Arial, Sans-serif">from the Noun Project</text></svg>